<svg width="264" height="97" viewBox="0 0 264 97" fill="none" xmlns="http://www.w3.org/2000/svg">
<path d="M60.7971 1.40576H0.797363V95.4233H13.2917V53.981H60.0523V42.8481H13.2917V12.5386H60.7945V1.40576H60.7971Z" fill="#F8F2F2"/>
<path d="M237.102 48.3727C250.958 47.0112 260.483 38.8053 260.483 26.4363C260.483 13.448 251.7 1.40576 228.812 1.40576H193.433V95.4233H228.812C250.957 95.4233 263.698 86.9274 263.698 69.9798C263.698 55.7554 254.546 48.9921 237.102 48.3727ZM247.492 27.6725C247.492 37.692 240.564 42.6809 228.812 42.6809H205.927V12.5386H228.812C240.564 12.5386 247.492 17.7757 247.492 27.6725ZM205.927 84.2905V53.8163H229.183C243.658 53.8163 250.709 58.7242 250.709 69.1148C250.709 79.3826 243.658 84.2905 229.183 84.2905H205.927Z" fill="#F8F2F2"/>
<path d="M167.737 0.0679469C158.264 0.0679469 154.315 5.39655 154.315 10.5292C154.315 10.5396 154.318 10.5501 154.318 10.5605C154.318 10.6912 154.346 10.8166 154.352 10.9447C154.542 15.3508 158.149 18.8709 162.602 18.8709C167.157 18.8709 170.847 15.1966 170.881 10.6494C170.881 10.6285 170.889 10.6076 170.889 10.584C170.889 10.5422 170.878 10.5056 170.876 10.4638C170.831 9.17022 170.669 8.07261 170.5 7.56562C177.012 8.94808 181.554 20.5931 181.554 35.9883C181.554 63.0286 165.688 86.7159 147.999 86.7159C136.944 86.7159 130.826 80.5981 130.826 66.1881C130.826 56.1215 132.01 49.4104 137.339 18.8161C139.707 5.39394 140.407 1.40336 140.407 1.40336H127.68C127.68 1.40336 123.721 24.3433 122.537 30.8557C116.024 67.9626 106.133 87.8997 91.9425 87.8997C82.4691 87.8997 77.3365 77.8331 77.3365 64.0164C77.3365 44.6725 87.0764 19.932 110.367 0.786616L109.575 0C104.246 1.97307 99.3121 1.31451 94.3755 1.31451C87.0712 1.31451 84.3089 0.326668 79.9655 0.326668C71.2814 0.326668 68.1219 7.23634 64.7664 18.8814L65.5556 19.276C67.9233 12.9596 71.872 11.9717 77.0046 11.9717C79.7669 11.9717 83.5171 12.5649 87.8604 12.5649C90.0321 12.5649 92.5984 12.3663 94.9661 11.9717C74.0437 30.5264 64.1078 54.543 64.1078 70.7301C64.1078 87.7037 73.5812 96.7851 85.0302 96.7851C97.6631 96.7851 111.281 88.101 120.953 53.5578C120.36 57.7026 118.782 67.3746 118.782 72.5072C118.782 88.8902 126.875 96.7851 141.086 96.7851C164.97 96.7851 187.669 58.8864 187.669 31.0569C187.672 16.451 182.539 0.0679469 167.737 0.0679469Z" fill="#F8F2F2"/>
</svg>
